<?xml version="1.0" encoding="utf-8"?>
<!-- Generator: Adobe Illustrator 21.1.0, SVG Export Plug-In . SVG Version: 6.00 Build 0)  -->
<svg version="1.1" id="Layer_1" xmlns="http://www.w3.org/2000/svg" xmlns:xlink="http://www.w3.org/1999/xlink" x="0px" y="0px"
	 viewBox="0 0 728 90" style="enable-background:new 0 0 728 90;" xml:space="preserve">
<style type="text/css">
	.st0{fill:#FFFFFF;}
</style>
<g>
	<path class="st0" d="M95.6,53c-0.4-0.4-0.6-0.9-0.8-1.6l-0.6-2.7c-0.4-1.8-1.3-2.1-2.8-2.1h-2V53h-3V36.5h6c3.8,0,5.8,1.5,5.8,4.8
		c0,2.6-1.7,3.9-3.8,4.1v0.1c1.5,0.2,2.4,0.9,2.8,2.6l0.8,3.2c0.2,0.6,0.4,1.2,0.9,1.7H95.6z M89.4,44.1h2.8c1.9,0,2.8-0.8,2.8-2.5
		c0-1.6-0.9-2.5-2.8-2.5h-2.8V44.1z"/>
	<path class="st0" d="M109.2,49.1l2.5,0.8c-0.6,2.6-2.8,3.5-5.3,3.5c-3.5,0-5.9-2.4-5.9-6.7c0-4.4,2.3-6.9,6-6.9
		c3.4,0,5.2,2.3,5.2,5.6c0,0.7-0.1,1.3-0.2,1.7h-8.2c0.1,2.4,1.2,3.9,3.2,3.9C107.8,51.1,108.8,50.6,109.2,49.1z M108.9,45.2
		c0-0.2,0-0.3,0-0.5c0-1.5-1-2.7-2.5-2.7c-1.7,0-2.8,1.2-3,3.2H108.9z"/>
	<path class="st0" d="M122.9,34.3h3V53h-2.6l-0.4-2.2c-0.6,2-2.2,2.6-4.1,2.6c-2.7,0-5.1-2.2-5.1-6.6c0-4.4,2.1-7,5.8-7
		c1.7,0,3.1,0.9,3.4,2V34.3z M122.9,45.1c0-2.2-1.6-3.1-3-3.1c-1.8,0-3.3,1.2-3.3,4.7c0,2.8,1.3,4.4,3.2,4.4c1.4,0,3-1.1,3-3.3V45.1
		z"/>
	<path class="st0" d="M137.4,50.6c-0.6,1.9-1.8,2.7-4,2.7c-2.4,0-3.9-1.2-3.9-4.3v-9h2.9v8.4c0,1.8,0.6,2.7,2.1,2.7
		c1.4,0,2.8-1.2,2.8-3.7v-7.4h2.9V53h-2.5L137.4,50.6z"/>
	<path class="st0" d="M154.2,49.7c-0.4,2.6-2.6,3.7-5.2,3.7c-3.5,0-5.9-2.4-5.9-6.7c0-4.3,2.4-6.9,6-6.9c2.9,0,4.7,1.5,4.9,4.1
		l-2.6,0.6c-0.2-1.5-1-2.4-2.4-2.4c-2,0-3.1,1.8-3.1,4.5c0,2.7,1.2,4.5,3.2,4.5c1.2,0,2.1-0.6,2.5-2.1L154.2,49.7z"/>
	<path class="st0" d="M164.4,49.1l2.5,0.8c-0.6,2.6-2.8,3.5-5.3,3.5c-3.5,0-5.9-2.4-5.9-6.7c0-4.4,2.3-6.9,6-6.9
		c3.4,0,5.2,2.3,5.2,5.6c0,0.7-0.1,1.3-0.2,1.7h-8.2c0.1,2.4,1.2,3.9,3.2,3.9C163.1,51.1,164,50.6,164.4,49.1z M164.2,45.2
		c0-0.2,0-0.3,0-0.5c0-1.5-1-2.7-2.5-2.7c-1.7,0-2.8,1.2-3,3.2H164.2z"/>
	<path class="st0" d="M183.2,52.6c-0.9,0.5-2.1,0.8-3.4,0.8c-2.4,0-3.9-1.2-3.9-3.8v-7.2H174v-2.3h1.9v-2.7l3-0.4v3.1h3.8v2.3h-3.9
		v6.6c0,1.4,0.6,1.9,1.7,1.9c0.8,0,1.5-0.3,2.2-0.8L183.2,52.6z"/>
	<path class="st0" d="M194.7,49.7c0,0.9,0.4,1.2,1,1.2c0.3,0,0.6-0.1,0.8-0.1v2.2c-0.4,0.2-1,0.3-1.6,0.3c-1.5,0-2.5-0.6-2.8-2.1
		c-0.6,1.6-2.1,2.2-3.8,2.2c-2.3,0-3.8-1.3-3.8-3.5c0-2.9,2.2-4.5,7.4-4.2v-1.5c0-1.5-0.8-2.1-2.1-2.1c-1.3,0-2,0.7-2.1,2l-2.9-0.5
		c0.2-2.7,2.6-3.8,5.2-3.8c2.8,0,4.8,1.1,4.8,4.1V49.7z M191.7,47.4c-3.2-0.1-4.5,0.7-4.5,2.1c0,1,0.6,1.7,1.8,1.7
		c1.2,0,2.7-0.7,2.7-2.1V47.4z"/>
	<path class="st0" d="M204.1,50.2c-1-1.7-1-2.2-1-2.2h-0.1c0,0-0.1,0.5-1.1,2.2L200,53h-3.1l4.3-6.5l-4-6.4h3.4l1.4,2.4
		c1,1.8,1.1,2.4,1.1,2.4h0.1c0,0,0.1-0.5,1.1-2.3l1.4-2.4h3.2l-4.1,6.4l4.3,6.6h-3.2L204.1,50.2z"/>
	<path class="st0" d="M212.4,34.2c1.1,0,1.9,0.7,1.9,1.8c0,1.1-0.8,1.8-1.9,1.8c-1,0-1.9-0.8-1.9-1.8
		C210.6,34.9,211.4,34.2,212.4,34.2z M213.9,40.1V53H211V40.1H213.9z"/>
	<path class="st0" d="M220.2,42.6c0.7-1.9,2.2-2.8,4.1-2.8c2.1,0,3.9,1.2,3.9,4V53h-2.9v-8.2c0-1.5-0.6-2.5-2.1-2.5
		c-1.4,0-2.8,0.8-2.8,3.4V53h-2.9V40.1h2.4L220.2,42.6z"/>
	<path class="st0" d="M240,40.7c0.6-0.4,0.8-1,1-2l2.4,0.8c-0.2,1.2-1.2,2.1-2.2,2.4c0.4,0.7,0.6,1.5,0.6,2.4c0,3-2.5,4.5-5.5,4.5
		c-0.6,0-1.3-0.1-1.7-0.2c-0.6,0.3-0.8,0.7-0.8,1.3c0,0.6,0.4,1,1.3,1h3.4c2.9,0,4.5,1.4,4.5,3.7c0,3.5-3.7,4.4-7.2,4.4
		c-3,0-5.8-0.7-5.8-3.3c0-1.6,1.2-2.7,3.4-2.9c-1.2-0.1-1.9-1-1.9-2.1c0-1,0.6-2,2-2.4c-1.7-0.7-2.6-1.9-2.6-3.9
		c0-2.9,2.2-4.6,5.4-4.6C237.8,39.8,239.1,40.1,240,40.7z M236.1,56.9c2.6,0,4.1-0.5,4.1-1.9c0-0.9-0.5-1.5-2-1.5h-2.9
		c-1.6,0-2.5,0.5-2.5,1.7C232.8,56.4,234.1,56.9,236.1,56.9z M236.3,46.8c1.6,0,2.5-0.8,2.5-2.5c0-1.7-1-2.5-2.5-2.5
		c-1.6,0-2.5,0.9-2.5,2.5C233.9,45.8,234.7,46.8,236.3,46.8z"/>
	<path class="st0" d="M254,58.7h-2.9V40.1h2.4l0.4,2.5c0.8-2.1,2.6-2.8,4.3-2.8c3.2,0,5.1,2.3,5.1,6.5c0,4.1-2,7.1-5.6,7.1
		c-2,0-3.2-0.9-3.6-2V58.7z M254,47.9c0,2.4,1.6,3.3,2.9,3.3c1.8,0,3.3-1.5,3.3-4.7c0-3-1.2-4.3-3.1-4.3c-1.7,0-3.2,1.3-3.2,3.6
		V47.9z"/>
	<path class="st0" d="M275.4,49.7c0,0.9,0.4,1.2,1,1.2c0.3,0,0.6-0.1,0.8-0.1v2.2c-0.4,0.2-1,0.3-1.6,0.3c-1.5,0-2.5-0.6-2.8-2.1
		c-0.6,1.6-2.1,2.2-3.8,2.2c-2.3,0-3.8-1.3-3.8-3.5c0-2.9,2.2-4.5,7.4-4.2v-1.5c0-1.5-0.8-2.1-2.1-2.1c-1.3,0-2,0.7-2.1,2l-2.9-0.5
		c0.2-2.7,2.6-3.8,5.2-3.8c2.8,0,4.8,1.1,4.8,4.1V49.7z M272.5,47.4c-3.2-0.1-4.5,0.7-4.5,2.1c0,1,0.6,1.7,1.8,1.7
		c1.2,0,2.7-0.7,2.7-2.1V47.4z"/>
	<path class="st0" d="M282.3,58.7h-2.9V40.1h2.4l0.4,2.5c0.8-2.1,2.6-2.8,4.3-2.8c3.2,0,5.1,2.3,5.1,6.5c0,4.1-2,7.1-5.6,7.1
		c-2,0-3.2-0.9-3.6-2V58.7z M282.2,47.9c0,2.4,1.6,3.3,2.9,3.3c1.8,0,3.3-1.5,3.3-4.7c0-3-1.2-4.3-3.1-4.3c-1.7,0-3.2,1.3-3.2,3.6
		V47.9z"/>
	<path class="st0" d="M302.1,49.1l2.5,0.8c-0.6,2.6-2.8,3.5-5.3,3.5c-3.5,0-5.9-2.4-5.9-6.7c0-4.4,2.3-6.9,6-6.9
		c3.4,0,5.2,2.3,5.2,5.6c0,0.7-0.1,1.3-0.2,1.7h-8.2c0.1,2.4,1.2,3.9,3.2,3.9C300.7,51.1,301.6,50.6,302.1,49.1z M301.8,45.2
		c0-0.2,0-0.3,0-0.5c0-1.5-1-2.7-2.5-2.7c-1.7,0-2.8,1.2-3,3.2H301.8z"/>
	<path class="st0" d="M315.1,43.1c-0.4-0.1-0.8-0.2-1.3-0.2c-1.7,0-3.5,1.2-3.5,3.8V53h-2.9V40.1h2.5l0.4,3.5c0.5-2.3,2-4,5.1-3.8
		L315.1,43.1z"/>
	<path class="st0" d="M328.3,46.3c0.7,2.6,0.9,4.6,0.9,4.6h0.1c0,0,0.1-2,0.7-4.6l1.5-6.2h2.9L331,53h-3.5l-1.5-5.6
		c-0.6-2.3-0.8-4.1-0.8-4.1h-0.1c0,0-0.1,1.8-0.8,4.1l-1.5,5.6h-3.5l-3.6-12.9h3l1.6,6.2c0.7,2.6,0.9,4.6,0.9,4.6h0.1
		c0,0,0.1-2,0.8-4.6l1.7-6.2h2.8L328.3,46.3z"/>
	<path class="st0" d="M335.6,46.5c0-4.4,2.4-6.7,6-6.7c3.6,0,6,2.3,6,6.7c0,4.4-2.4,6.9-6,6.9C338,53.4,335.6,50.9,335.6,46.5z
		 M338.5,46.5c0,3.1,1,4.6,3.1,4.6c2.1,0,3.1-1.5,3.1-4.6c0-2.9-1.1-4.4-3.1-4.4C339.6,42.1,338.5,43.6,338.5,46.5z"/>
	<path class="st0" d="M358.1,43.1c-0.4-0.1-0.8-0.2-1.3-0.2c-1.7,0-3.5,1.2-3.5,3.8V53h-2.9V40.1h2.5l0.4,3.5c0.5-2.3,2-4,5.1-3.8
		L358.1,43.1z"/>
	<path class="st0" d="M371.9,53h-3.5l-4.2-5.6h-0.8V53h-2.9V34.3h2.9v10.8h0.6l4-5h3.5l-5,6L371.9,53z"/>
</g>
</svg>
