<?xml version="1.0" encoding="utf-8"?>
<!-- Generator: Adobe Illustrator 21.1.0, SVG Export Plug-In . SVG Version: 6.00 Build 0)  -->
<svg version="1.1" id="Layer_1" xmlns="http://www.w3.org/2000/svg" xmlns:xlink="http://www.w3.org/1999/xlink" x="0px" y="0px"
	 viewBox="0 0 728 90" style="enable-background:new 0 0 728 90;" xml:space="preserve">
<style type="text/css">
	.st0{fill:#FFFFFF;}
</style>
<g>
	<path class="st0" d="M65.1,34.7l-2.8-5.1c-0.9-1.7-1.3-2.7-1.3-2.7h-0.1c0,0,0.2,1,0.2,2.9v8.8h-3V22.1h3.3l3.7,6.9
		c0.7,1.4,1,2.1,1,2.1h0.1c0,0,0.2-0.8,1-2.1l3.6-6.9h3.2v16.5h-3v-8.8c0-1.9,0.1-2.9,0.1-2.9h-0.1c0,0-0.3,1.1-1.2,2.7l-2.8,5.1
		H65.1z"/>
	<path class="st0" d="M87.5,35.3c0,0.9,0.4,1.2,1,1.2c0.3,0,0.6-0.1,0.8-0.1v2.2c-0.4,0.2-1,0.3-1.6,0.3c-1.5,0-2.5-0.6-2.8-2.1
		C84.1,38.4,82.7,39,81,39c-2.3,0-3.8-1.3-3.8-3.5c0-2.9,2.2-4.5,7.4-4.2v-1.5c0-1.5-0.8-2.1-2.1-2.1c-1.3,0-2,0.7-2.1,2l-2.9-0.5
		c0.2-2.7,2.6-3.8,5.2-3.8c2.8,0,4.8,1.1,4.8,4.1V35.3z M84.6,33c-3.2-0.1-4.5,0.7-4.5,2.1c0,1,0.6,1.7,1.8,1.7
		c1.2,0,2.7-0.7,2.7-2.1V33z"/>
	<path class="st0" d="M103.2,38.6h-3.5L95.4,33h-0.8v5.6h-2.9V19.9h2.9v10.8h0.6l4-5h3.5l-5,6L103.2,38.6z"/>
	<path class="st0" d="M112.5,34.7l2.5,0.8c-0.6,2.6-2.8,3.5-5.3,3.5c-3.5,0-5.9-2.4-5.9-6.7c0-4.4,2.3-6.9,6-6.9
		c3.4,0,5.2,2.3,5.2,5.6c0,0.7-0.1,1.3-0.2,1.7h-8.2c0.1,2.4,1.2,3.9,3.2,3.9C111.1,36.7,112,36.2,112.5,34.7z M112.2,30.8
		c0-0.2,0-0.3,0-0.5c0-1.5-1-2.7-2.5-2.7c-1.7,0-2.8,1.2-3,3.2H112.2z"/>
	<path class="st0" d="M127.7,32.4c0.8,2.5,1,4.1,1,4.1h0.1c0,0,0.2-1.6,1-4.1l2-6.7h3.1l-4.9,14c-1.3,3.9-3.1,4.7-5.5,4.7
		c-0.7,0-1.4-0.1-2-0.3l0.3-2.5c0.5,0.3,1.1,0.4,1.7,0.4c1.3,0,2.1-0.6,2.7-2.6l-4.8-13.7h3.2L127.7,32.4z"/>
	<path class="st0" d="M136,32.1c0-4.4,2.4-6.7,6-6.7c3.6,0,6,2.3,6,6.7s-2.4,6.9-6,6.9C138.4,39,136,36.5,136,32.1z M138.9,32.1
		c0,3.1,1,4.6,3.1,4.6c2.1,0,3.1-1.5,3.1-4.6c0-2.9-1.1-4.4-3.1-4.4C140,27.7,138.9,29.2,138.9,32.1z"/>
	<path class="st0" d="M158.8,36.2c-0.6,1.9-1.8,2.7-4,2.7c-2.4,0-3.9-1.2-3.9-4.3v-9h2.9v8.4c0,1.8,0.6,2.7,2.1,2.7
		c1.4,0,2.8-1.2,2.8-3.7v-7.4h2.9v12.9h-2.5L158.8,36.2z"/>
	<path class="st0" d="M173.2,28.7c-0.4-0.1-0.8-0.2-1.3-0.2c-1.7,0-3.5,1.2-3.5,3.8v6.3h-2.9V25.7h2.5l0.4,3.5c0.5-2.3,2-4,5.1-3.8
		L173.2,28.7z"/>
	<path class="st0" d="M180.5,28v-2.3h1.9v-1.1c0-3.7,2.7-4.8,5.2-4.8c1.3,0,2.6,0.3,3.7,0.9l-1,2.4c-0.6-0.5-1.5-0.8-2.5-0.8
		c-1.3,0-2.3,0.6-2.3,2.5v1h7.3v12.9h-2.9V28h-4.4v10.6h-2.9V28H180.5z"/>
	<path class="st0" d="M199.2,28.2c0.7-1.9,2.2-2.8,4.1-2.8c2.1,0,3.9,1.2,3.9,4v9.2h-2.9v-8.2c0-1.5-0.6-2.5-2.1-2.5
		c-1.4,0-2.8,0.8-2.8,3.4v7.3h-2.9V25.7h2.4L199.2,28.2z"/>
	<path class="st0" d="M220.3,35.3c0,0.9,0.4,1.2,1,1.2c0.3,0,0.6-0.1,0.8-0.1v2.2c-0.4,0.2-1,0.3-1.6,0.3c-1.5,0-2.5-0.6-2.8-2.1
		c-0.6,1.6-2.1,2.2-3.8,2.2c-2.3,0-3.8-1.3-3.8-3.5c0-2.9,2.2-4.5,7.4-4.2v-1.5c0-1.5-0.8-2.1-2.1-2.1c-1.3,0-2,0.7-2.1,2l-2.9-0.5
		c0.2-2.7,2.6-3.8,5.2-3.8c2.8,0,4.8,1.1,4.8,4.1V35.3z M217.4,33c-3.2-0.1-4.5,0.7-4.5,2.1c0,1,0.6,1.7,1.8,1.7
		c1.2,0,2.7-0.7,2.7-2.1V33z"/>
	<path class="st0" d="M227.3,28.2c0.7-1.9,2.2-2.8,4.1-2.8c2.1,0,3.9,1.2,3.9,4v9.2h-2.9v-8.2c0-1.5-0.6-2.5-2.1-2.5
		c-1.4,0-2.8,0.8-2.8,3.4v7.3h-2.9V25.7h2.4L227.3,28.2z"/>
	<path class="st0" d="M249.3,35.3c-0.4,2.6-2.6,3.7-5.2,3.7c-3.5,0-5.9-2.4-5.9-6.7s2.4-6.9,6-6.9c2.9,0,4.7,1.5,4.9,4.1l-2.6,0.6
		c-0.2-1.5-1-2.4-2.4-2.4c-2,0-3.1,1.8-3.1,4.5c0,2.7,1.2,4.5,3.2,4.5c1.2,0,2.1-0.6,2.5-2.1L249.3,35.3z"/>
	<path class="st0" d="M253.5,19.8c1.1,0,1.9,0.7,1.9,1.8c0,1.1-0.8,1.8-1.9,1.8c-1,0-1.9-0.8-1.9-1.8
		C251.6,20.5,252.4,19.8,253.5,19.8z M255,25.7v12.9H252V25.7H255z"/>
	<path class="st0" d="M268.2,35.3c0,0.9,0.4,1.2,1,1.2c0.3,0,0.6-0.1,0.8-0.1v2.2c-0.4,0.2-1,0.3-1.6,0.3c-1.5,0-2.5-0.6-2.8-2.1
		c-0.6,1.6-2.1,2.2-3.8,2.2c-2.3,0-3.8-1.3-3.8-3.5c0-2.9,2.2-4.5,7.4-4.2v-1.5c0-1.5-0.8-2.1-2.1-2.1s-2,0.7-2.1,2l-2.9-0.5
		c0.2-2.7,2.6-3.8,5.2-3.8c2.8,0,4.8,1.1,4.8,4.1V35.3z M265.3,33c-3.2-0.1-4.5,0.7-4.5,2.1c0,1,0.6,1.7,1.8,1.7
		c1.2,0,2.7-0.7,2.7-2.1V33z"/>
	<path class="st0" d="M277.2,38.6c-0.7,0.2-1.2,0.3-1.8,0.3c-1.7,0-3.2-0.9-3.2-3v-16h2.9v15.3c0,0.8,0.5,1.1,1.1,1.1
		c0.4,0,0.6-0.1,0.9-0.1L277.2,38.6z"/>
	<path class="st0" d="M293.8,28.7c-0.4-0.1-0.8-0.2-1.3-0.2c-1.7,0-3.5,1.2-3.5,3.8v6.3h-2.9V25.7h2.5l0.4,3.5c0.5-2.3,2-4,5.1-3.8
		L293.8,28.7z"/>
	<path class="st0" d="M303.8,34.7l2.5,0.8c-0.6,2.6-2.8,3.5-5.3,3.5c-3.5,0-5.9-2.4-5.9-6.7c0-4.4,2.3-6.9,6-6.9
		c3.4,0,5.2,2.3,5.2,5.6c0,0.7-0.1,1.3-0.2,1.7H298c0.1,2.4,1.2,3.9,3.2,3.9C302.5,36.7,303.4,36.2,303.8,34.7z M303.6,30.8
		c0-0.2,0-0.3,0-0.5c0-1.5-1-2.7-2.5-2.7c-1.7,0-2.8,1.2-3,3.2H303.6z"/>
	<path class="st0" d="M310.7,34.8c0.2,1.5,1.3,2.1,2.7,2.1c1.3,0,2.3-0.5,2.3-1.5c0-1-0.5-1.5-1.9-1.8l-1.9-0.4
		c-2.3-0.6-3.2-1.8-3.2-3.7c0-3.1,2.5-4,5-4c2.9,0,4.6,1,4.8,3.6l-2.8,0.3c-0.1-1.2-0.8-1.7-2.2-1.7c-1.2,0-2,0.6-2,1.5
		c0,0.8,0.4,1.3,1.6,1.6l1.8,0.4c2.4,0.6,3.7,1.7,3.7,4c0,2.8-2.3,3.9-5.2,3.9c-3,0-4.8-0.9-5.2-3.3L310.7,34.8z"/>
	<path class="st0" d="M320.6,32.1c0-4.4,2.4-6.7,6-6.7c3.6,0,6,2.3,6,6.7s-2.4,6.9-6,6.9C323,39,320.6,36.5,320.6,32.1z M323.5,32.1
		c0,3.1,1,4.6,3.1,4.6c2.1,0,3.1-1.5,3.1-4.6c0-2.9-1.1-4.4-3.1-4.4C324.5,27.7,323.5,29.2,323.5,32.1z"/>
	<path class="st0" d="M340.4,38.6c-0.7,0.2-1.2,0.3-1.8,0.3c-1.7,0-3.2-0.9-3.2-3v-16h2.9v15.3c0,0.8,0.5,1.1,1.1,1.1
		c0.4,0,0.6-0.1,0.9-0.1L340.4,38.6z"/>
	<path class="st0" d="M350.8,36.2c-0.6,1.9-1.8,2.7-4,2.7c-2.4,0-3.9-1.2-3.9-4.3v-9h2.9v8.4c0,1.8,0.6,2.7,2.1,2.7
		c1.4,0,2.8-1.2,2.8-3.7v-7.4h2.9v12.9h-2.5L350.8,36.2z"/>
	<path class="st0" d="M365,38.2c-0.9,0.5-2.1,0.8-3.4,0.8c-2.4,0-3.9-1.2-3.9-3.8V28h-1.9v-2.3h1.9v-2.7l3-0.4v3.1h3.8V28h-3.9v6.6
		c0,1.4,0.6,1.9,1.7,1.9c0.8,0,1.5-0.3,2.2-0.8L365,38.2z"/>
	<path class="st0" d="M368.9,19.8c1.1,0,1.9,0.7,1.9,1.8c0,1.1-0.8,1.8-1.9,1.8c-1,0-1.9-0.8-1.9-1.8
		C367,20.5,367.8,19.8,368.9,19.8z M370.3,25.7v12.9h-2.9V25.7H370.3z"/>
	<path class="st0" d="M373.4,32.1c0-4.4,2.4-6.7,6-6.7c3.6,0,6,2.3,6,6.7s-2.4,6.9-6,6.9C375.7,39,373.4,36.5,373.4,32.1z
		 M376.2,32.1c0,3.1,1,4.6,3.1,4.6c2.1,0,3.1-1.5,3.1-4.6c0-2.9-1.1-4.4-3.1-4.4C377.3,27.7,376.2,29.2,376.2,32.1z"/>
	<path class="st0" d="M391.2,28.2c0.7-1.9,2.2-2.8,4.1-2.8c2.1,0,3.9,1.2,3.9,4v9.2h-2.9v-8.2c0-1.5-0.6-2.5-2.1-2.5
		c-1.4,0-2.8,0.8-2.8,3.4v7.3h-2.9V25.7h2.4L391.2,28.2z"/>
	<path class="st0" d="M119,61.2c0.6-1.9,2-2.8,3.9-2.8c2.1,0,3.9,1.2,3.9,4v9.2h-2.9v-8.3c0-1.5-0.6-2.5-2.1-2.5
		c-1.4,0-2.8,0.8-2.8,3.4v7.3h-2.9V52.9h2.9V61.2z"/>
	<path class="st0" d="M140,68.3c0,0.9,0.4,1.2,1,1.2c0.3,0,0.6-0.1,0.8-0.1v2.2c-0.4,0.2-1,0.3-1.6,0.3c-1.5,0-2.5-0.6-2.8-2.1
		c-0.6,1.6-2.1,2.2-3.8,2.2c-2.3,0-3.8-1.3-3.8-3.5c0-2.9,2.2-4.5,7.4-4.2v-1.5c0-1.5-0.8-2.1-2.1-2.1c-1.3,0-2,0.7-2.1,2l-2.9-0.5
		c0.2-2.7,2.6-3.8,5.2-3.8c2.8,0,4.8,1.1,4.8,4.1V68.3z M137,66c-3.2-0.1-4.5,0.7-4.5,2.1c0,1,0.6,1.7,1.8,1.7
		c1.2,0,2.7-0.7,2.7-2.1V66z"/>
	<path class="st0" d="M147.1,77.3h-2.9V58.7h2.4l0.4,2.5c0.8-2.1,2.6-2.8,4.3-2.8c3.2,0,5.1,2.3,5.1,6.5c0,4.1-2,7.1-5.6,7.1
		c-2,0-3.2-0.9-3.6-2V77.3z M147.1,66.5c0,2.4,1.6,3.3,2.9,3.3c1.8,0,3.3-1.5,3.3-4.7c0-3-1.2-4.3-3.1-4.3c-1.7,0-3.2,1.3-3.2,3.6
		V66.5z"/>
	<path class="st0" d="M162.3,77.3h-2.9V58.7h2.4l0.4,2.5c0.8-2.1,2.6-2.8,4.3-2.8c3.2,0,5.1,2.3,5.1,6.5c0,4.1-2,7.1-5.6,7.1
		c-2,0-3.2-0.9-3.6-2V77.3z M162.3,66.5c0,2.4,1.6,3.3,2.9,3.3c1.8,0,3.3-1.5,3.3-4.7c0-3-1.2-4.3-3.1-4.3c-1.7,0-3.2,1.3-3.2,3.6
		V66.5z"/>
	<path class="st0" d="M182.4,67.7l2.5,0.8c-0.6,2.6-2.8,3.5-5.3,3.5c-3.5,0-5.9-2.4-5.9-6.7c0-4.4,2.3-6.9,6-6.9
		c3.4,0,5.2,2.3,5.2,5.6c0,0.7-0.1,1.3-0.2,1.7h-8.2c0.1,2.4,1.2,3.9,3.2,3.9C181,69.7,182,69.2,182.4,67.7z M182.1,63.8
		c0-0.2,0-0.3,0-0.5c0-1.5-1-2.7-2.5-2.7c-1.7,0-2.8,1.2-3,3.2H182.1z"/>
	<path class="st0" d="M190.7,61.2c0.7-1.9,2.2-2.8,4.1-2.8c2.1,0,3.9,1.2,3.9,4v9.2h-2.9v-8.2c0-1.5-0.6-2.5-2.1-2.5
		c-1.4,0-2.8,0.8-2.8,3.4v7.3H188V58.7h2.4L190.7,61.2z"/>
	<path class="st0" d="M218.1,68.3c0,0.9,0.4,1.2,1,1.2c0.3,0,0.6-0.1,0.8-0.1v2.2c-0.4,0.2-1,0.3-1.6,0.3c-1.5,0-2.5-0.6-2.8-2.1
		c-0.6,1.6-2.1,2.2-3.8,2.2c-2.3,0-3.8-1.3-3.8-3.5c0-2.9,2.2-4.5,7.4-4.2v-1.5c0-1.5-0.8-2.1-2.1-2.1c-1.3,0-2,0.7-2.1,2l-2.9-0.5
		c0.2-2.7,2.6-3.8,5.2-3.8c2.8,0,4.8,1.1,4.8,4.1V68.3z M215.2,66c-3.2-0.1-4.5,0.7-4.5,2.1c0,1,0.6,1.7,1.8,1.7
		c1.2,0,2.7-0.7,2.7-2.1V66z"/>
	<path class="st0" d="M229.8,71.2c-0.9,0.5-2.1,0.8-3.4,0.8c-2.4,0-3.9-1.2-3.9-3.8V61h-1.9v-2.3h1.9v-2.7l3-0.4v3.1h3.8V61h-3.9
		v6.6c0,1.4,0.6,1.9,1.7,1.9c0.8,0,1.5-0.3,2.2-0.8L229.8,71.2z"/>
	<path class="st0" d="M243.8,68.8c-1-1.7-1-2.2-1-2.2h-0.1c0,0-0.1,0.5-1.1,2.2l-1.8,2.8h-3.1l4.3-6.5l-4-6.4h3.4l1.4,2.4
		c1,1.8,1.1,2.4,1.1,2.4h0.1c0,0,0.1-0.5,1.1-2.3l1.4-2.4h3.2l-4.1,6.4l4.3,6.6h-3.2L243.8,68.8z"/>
	<path class="st0" d="M258.4,67.7l2.5,0.8c-0.6,2.6-2.8,3.5-5.3,3.5c-3.5,0-5.9-2.4-5.9-6.7c0-4.4,2.3-6.9,6-6.9
		c3.4,0,5.2,2.3,5.2,5.6c0,0.7-0.1,1.3-0.2,1.7h-8.2c0.1,2.4,1.2,3.9,3.2,3.9C257.1,69.7,258,69.2,258.4,67.7z M258.2,63.8
		c0-0.2,0-0.3,0-0.5c0-1.5-1-2.7-2.5-2.7c-1.7,0-2.8,1.2-3,3.2H258.2z"/>
	<path class="st0" d="M271.7,61.7c-0.4-0.1-0.8-0.2-1.3-0.2c-1.7,0-3.5,1.2-3.5,3.8v6.3h-2.9V58.7h2.5l0.4,3.5c0.5-2.3,2-4,5.1-3.8
		L271.7,61.7z"/>
	<path class="st0" d="M273,65.1c0-4.4,2.4-6.7,6-6.7c3.6,0,6,2.3,6,6.7c0,4.4-2.4,6.9-6,6.9C275.4,72,273,69.5,273,65.1z
		 M275.9,65.1c0,3.1,1,4.6,3.1,4.6c2.1,0,3.1-1.5,3.1-4.6c0-2.9-1.1-4.4-3.1-4.4C277,60.7,275.9,62.2,275.9,65.1z"/>
	<path class="st0" d="M289.9,67.7c1.2,0,2.1,0.9,2.1,2.1c0,1.1-0.9,2.1-2.1,2.1c-1.1,0-2-0.9-2-2.1
		C287.8,68.5,288.7,67.7,289.9,67.7z"/>
	<path class="st0" d="M305.9,68.3c-0.4,2.6-2.6,3.7-5.2,3.7c-3.5,0-5.9-2.4-5.9-6.7c0-4.3,2.4-6.9,6-6.9c2.9,0,4.7,1.5,4.9,4.1
		l-2.6,0.6c-0.2-1.5-1-2.4-2.4-2.4c-2,0-3.1,1.8-3.1,4.5s1.2,4.5,3.2,4.5c1.2,0,2.1-0.6,2.5-2.1L305.9,68.3z"/>
	<path class="st0" d="M307.7,65.1c0-4.4,2.4-6.7,6-6.7c3.6,0,6,2.3,6,6.7c0,4.4-2.4,6.9-6,6.9C310.1,72,307.7,69.5,307.7,65.1z
		 M310.6,65.1c0,3.1,1,4.6,3.1,4.6c2.1,0,3.1-1.5,3.1-4.6c0-2.9-1.1-4.4-3.1-4.4C311.6,60.7,310.6,62.2,310.6,65.1z"/>
	<path class="st0" d="M337.1,58.4c2.2,0,3.8,1.2,3.8,3.9v9.3H338v-8.3c0-1.5-0.6-2.5-2-2.5c-1.4,0-2.7,1-2.7,3.4v7.3h-2.9v-8.3
		c0-1.5-0.6-2.5-2-2.5c-1.4,0-2.7,1-2.7,3.4v7.3h-2.9V58.7h2.4l0.4,2.5c0.7-2,2.2-2.8,4-2.8s3.2,0.8,3.5,2.9
		C333.7,59.2,335.3,58.4,337.1,58.4z"/>
</g>
</svg>
