<?xml version="1.0" encoding="utf-8"?>
<!-- Generator: Adobe Illustrator 21.0.0, SVG Export Plug-In . SVG Version: 6.00 Build 0)  -->
<svg version="1.1" id="Layer_1" xmlns="http://www.w3.org/2000/svg" xmlns:xlink="http://www.w3.org/1999/xlink" x="0px" y="0px"
	 viewBox="0 0 728 90" style="enable-background:new 0 0 728 90;" xml:space="preserve">
<style type="text/css">
	.st0{fill:#FFFFFF;}
</style>
<g>
	<path class="st0" d="M90.7,31.8c0.6,2.5,0.8,4.5,0.8,4.5h0.1c0,0,0.2-2.1,0.8-4.5l2.4-9.9h3l-4.1,16.5h-4.3l-2.3-9.2
		c-0.6-2.5-0.7-4.5-0.7-4.5h-0.1c0,0-0.1,2-0.8,4.5l-2.3,9.2h-4.2l-4.1-16.5h3.2l2.4,9.9c0.6,2.5,0.8,4.6,0.8,4.6h0.1
		c0,0,0.2-2.1,0.8-4.5l2.5-9.9h3.5L90.7,31.8z"/>
	<path class="st0" d="M103.1,27.9c0.6-1.9,2-2.8,3.9-2.8c2.1,0,3.9,1.2,3.9,4v9.2H108v-8.3c0-1.5-0.6-2.5-2.1-2.5
		c-1.4,0-2.8,0.8-2.8,3.4v7.3h-2.9V19.6h2.9V27.9z"/>
	<path class="st0" d="M122.5,34.4l2.5,0.8c-0.6,2.6-2.8,3.5-5.3,3.5c-3.5,0-5.9-2.4-5.9-6.7c0-4.4,2.3-6.9,6-6.9
		c3.4,0,5.2,2.3,5.2,5.6c0,0.7-0.1,1.3-0.2,1.7h-8.2c0.1,2.4,1.2,3.9,3.2,3.9C121.2,36.4,122.1,35.9,122.5,34.4z M122.3,30.5
		c0-0.2,0-0.3,0-0.5c0-1.5-1-2.7-2.5-2.7c-1.7,0-2.8,1.2-3,3.2H122.3z"/>
	<path class="st0" d="M130.9,27.9c0.7-1.9,2.2-2.8,4.1-2.8c2.1,0,3.9,1.2,3.9,4v9.2H136v-8.2c0-1.5-0.6-2.5-2.1-2.5
		c-1.4,0-2.8,0.8-2.8,3.4v7.3h-2.9V25.4h2.4L130.9,27.9z"/>
	<path class="st0" d="M152.3,32.1c0.8,2.5,1,4.1,1,4.1h0.1c0,0,0.2-1.6,1-4.1l2-6.7h3.1l-4.9,14c-1.3,3.9-3.1,4.7-5.5,4.7
		c-0.7,0-1.4-0.1-2-0.3l0.3-2.5c0.5,0.3,1.1,0.4,1.7,0.4c1.3,0,2.1-0.6,2.7-2.6l-4.8-13.7h3.2L152.3,32.1z"/>
	<path class="st0" d="M160.6,31.8c0-4.4,2.4-6.7,6-6.7c3.6,0,6,2.3,6,6.7c0,4.4-2.4,6.9-6,6.9C163,38.7,160.6,36.2,160.6,31.8z
		 M163.5,31.8c0,3.1,1,4.6,3.1,4.6c2.1,0,3.1-1.5,3.1-4.6c0-2.9-1.1-4.4-3.1-4.4C164.6,27.4,163.5,28.9,163.5,31.8z"/>
	<path class="st0" d="M183.4,36c-0.6,1.9-1.8,2.7-4,2.7c-2.4,0-3.9-1.2-3.9-4.3v-9h2.9v8.4c0,1.8,0.6,2.7,2.1,2.7
		c1.4,0,2.8-1.2,2.8-3.7v-7.4h2.9v12.9h-2.5L183.4,36z"/>
	<path class="st0" d="M210.7,25.1c2.2,0,3.8,1.2,3.8,3.9v9.3h-2.9v-8.3c0-1.5-0.6-2.5-2-2.5c-1.4,0-2.7,1-2.7,3.4v7.3h-2.9v-8.3
		c0-1.5-0.6-2.5-2-2.5c-1.4,0-2.7,1-2.7,3.4v7.3h-2.9V25.4h2.4l0.4,2.5c0.7-2,2.2-2.8,4-2.8s3.2,0.8,3.5,2.9
		C207.2,25.9,208.9,25.1,210.7,25.1z"/>
	<path class="st0" d="M227.6,35c0,0.9,0.4,1.2,1,1.2c0.3,0,0.6-0.1,0.8-0.1v2.2c-0.4,0.2-1,0.3-1.6,0.3c-1.5,0-2.5-0.6-2.8-2.1
		c-0.6,1.6-2.1,2.2-3.8,2.2c-2.3,0-3.8-1.3-3.8-3.5c0-2.9,2.2-4.5,7.4-4.2v-1.5c0-1.5-0.8-2.1-2.1-2.1c-1.3,0-2,0.7-2.1,2l-2.9-0.5
		c0.2-2.7,2.6-3.8,5.2-3.8c2.8,0,4.8,1.1,4.8,4.1V35z M224.6,32.7c-3.2-0.1-4.5,0.7-4.5,2.1c0,1,0.6,1.7,1.8,1.7
		c1.2,0,2.7-0.7,2.7-2.1V32.7z"/>
	<path class="st0" d="M234.5,27.9c0.7-1.9,2.2-2.8,4.1-2.8c2.1,0,3.9,1.2,3.9,4v9.2h-2.9v-8.2c0-1.5-0.6-2.5-2.1-2.5
		c-1.4,0-2.8,0.8-2.8,3.4v7.3h-2.9V25.4h2.4L234.5,27.9z"/>
	<path class="st0" d="M255.7,35c0,0.9,0.4,1.2,1,1.2c0.3,0,0.6-0.1,0.8-0.1v2.2c-0.4,0.2-1,0.3-1.6,0.3c-1.5,0-2.5-0.6-2.8-2.1
		c-0.6,1.6-2.1,2.2-3.8,2.2c-2.3,0-3.8-1.3-3.8-3.5c0-2.9,2.2-4.5,7.4-4.2v-1.5c0-1.5-0.8-2.1-2.1-2.1c-1.3,0-2,0.7-2.1,2l-2.9-0.5
		c0.2-2.7,2.6-3.8,5.2-3.8c2.8,0,4.8,1.1,4.8,4.1V35z M252.8,32.7c-3.2-0.1-4.5,0.7-4.5,2.1c0,1,0.6,1.7,1.8,1.7
		c1.2,0,2.7-0.7,2.7-2.1V32.7z"/>
	<path class="st0" d="M268.2,26c0.6-0.4,0.8-1,1-2l2.4,0.8c-0.2,1.2-1.2,2.1-2.2,2.4c0.4,0.7,0.6,1.5,0.6,2.4c0,3-2.5,4.5-5.5,4.5
		c-0.6,0-1.3-0.1-1.7-0.2c-0.6,0.3-0.8,0.7-0.8,1.3c0,0.6,0.4,1,1.3,1h3.4c2.9,0,4.5,1.4,4.5,3.7c0,3.5-3.7,4.4-7.2,4.4
		c-3,0-5.8-0.7-5.8-3.3c0-1.6,1.2-2.7,3.4-2.9c-1.2-0.1-1.9-1-1.9-2.1c0-1,0.6-2,2-2.4c-1.7-0.7-2.6-1.9-2.6-3.9
		c0-2.9,2.2-4.6,5.4-4.6C266,25.1,267.3,25.4,268.2,26z M264.3,42.2c2.6,0,4.1-0.5,4.1-1.9c0-0.9-0.5-1.5-2-1.5h-2.9
		c-1.6,0-2.5,0.5-2.5,1.7C260.9,41.7,262.2,42.2,264.3,42.2z M264.5,32.1c1.6,0,2.5-0.8,2.5-2.5c0-1.7-1-2.5-2.5-2.5
		c-1.6,0-2.5,0.9-2.5,2.5C262,31.1,262.9,32.1,264.5,32.1z"/>
	<path class="st0" d="M280.9,34.4l2.5,0.8c-0.6,2.6-2.8,3.5-5.3,3.5c-3.5,0-5.9-2.4-5.9-6.7c0-4.4,2.3-6.9,6-6.9
		c3.4,0,5.2,2.3,5.2,5.6c0,0.7-0.1,1.3-0.2,1.7h-8.2c0.1,2.4,1.2,3.9,3.2,3.9C279.6,36.4,280.5,35.9,280.9,34.4z M280.7,30.5
		c0-0.2,0-0.3,0-0.5c0-1.5-1-2.7-2.5-2.7c-1.7,0-2.8,1.2-3,3.2H280.7z"/>
	<path class="st0" d="M302.1,35c0,0.9,0.4,1.2,1,1.2c0.3,0,0.6-0.1,0.8-0.1v2.2c-0.4,0.2-1,0.3-1.6,0.3c-1.5,0-2.5-0.6-2.8-2.1
		c-0.6,1.6-2.1,2.2-3.8,2.2c-2.3,0-3.8-1.3-3.8-3.5c0-2.9,2.2-4.5,7.4-4.2v-1.5c0-1.5-0.8-2.1-2.1-2.1c-1.3,0-2,0.7-2.1,2l-2.9-0.5
		c0.2-2.7,2.6-3.8,5.2-3.8c2.8,0,4.8,1.1,4.8,4.1V35z M299.2,32.7c-3.2-0.1-4.5,0.7-4.5,2.1c0,1,0.6,1.7,1.8,1.7
		c1.2,0,2.7-0.7,2.7-2.1V32.7z"/>
	<path class="st0" d="M311.1,38.3c-0.7,0.2-1.2,0.3-1.8,0.3c-1.7,0-3.2-0.9-3.2-3v-16h2.9v15.3c0,0.8,0.5,1.1,1.1,1.1
		c0.4,0,0.6-0.1,0.9-0.1L311.1,38.3z"/>
	<path class="st0" d="M318.6,38.3c-0.7,0.2-1.2,0.3-1.8,0.3c-1.7,0-3.2-0.9-3.2-3v-16h2.9v15.3c0,0.8,0.5,1.1,1.1,1.1
		c0.4,0,0.6-0.1,0.9-0.1L318.6,38.3z"/>
	<path class="st0" d="M331.1,32.1c0.8,2.5,1,4.1,1,4.1h0.1c0,0,0.2-1.6,1-4.1l2-6.7h3.1l-4.9,14c-1.3,3.9-3.1,4.7-5.5,4.7
		c-0.7,0-1.4-0.1-2-0.3l0.3-2.5c0.5,0.3,1.1,0.4,1.7,0.4c1.3,0,2.1-0.6,2.7-2.6l-4.8-13.7h3.2L331.1,32.1z"/>
	<path class="st0" d="M339.4,31.8c0-4.4,2.4-6.7,6-6.7c3.6,0,6,2.3,6,6.7c0,4.4-2.4,6.9-6,6.9C341.8,38.7,339.4,36.2,339.4,31.8z
		 M342.3,31.8c0,3.1,1,4.6,3.1,4.6c2.1,0,3.1-1.5,3.1-4.6c0-2.9-1.1-4.4-3.1-4.4C343.4,27.4,342.3,28.9,342.3,31.8z"/>
	<path class="st0" d="M362.2,36c-0.6,1.9-1.8,2.7-4,2.7c-2.4,0-3.9-1.2-3.9-4.3v-9h2.9v8.4c0,1.8,0.6,2.7,2.1,2.7
		c1.4,0,2.8-1.2,2.8-3.7v-7.4h2.9v12.9h-2.5L362.2,36z"/>
	<path class="st0" d="M376.6,28.4c-0.4-0.1-0.8-0.2-1.3-0.2c-1.7,0-3.5,1.2-3.5,3.8v6.3h-2.9V25.4h2.5l0.4,3.5c0.5-2.3,2-4,5.1-3.8
		L376.6,28.4z"/>
	<path class="st0" d="M82.4,60.7v-2.3h1.9v-1.1c0-3.7,2.7-4.8,5.2-4.8c1.3,0,2.6,0.3,3.7,0.9l-1,2.4c-0.6-0.5-1.5-0.8-2.5-0.8
		c-1.3,0-2.3,0.6-2.3,2.5v1h7.3v12.9h-2.9V60.7h-4.4v10.6h-2.9V60.7H82.4z"/>
	<path class="st0" d="M101.1,60.9c0.7-1.9,2.2-2.8,4.1-2.8c2.1,0,3.9,1.2,3.9,4v9.2h-2.9v-8.2c0-1.5-0.6-2.5-2.1-2.5
		c-1.4,0-2.8,0.8-2.8,3.4v7.3h-2.9V58.4h2.4L101.1,60.9z"/>
	<path class="st0" d="M122.2,68c0,0.9,0.4,1.2,1,1.2c0.3,0,0.6-0.1,0.8-0.1v2.2c-0.4,0.2-1,0.3-1.6,0.3c-1.5,0-2.5-0.6-2.8-2.1
		c-0.6,1.6-2.1,2.2-3.8,2.2c-2.3,0-3.8-1.3-3.8-3.5c0-2.9,2.2-4.5,7.4-4.2v-1.5c0-1.5-0.8-2.1-2.1-2.1c-1.3,0-2,0.7-2.1,2l-2.9-0.5
		c0.2-2.7,2.6-3.8,5.2-3.8c2.8,0,4.8,1.1,4.8,4.1V68z M119.3,65.7c-3.2-0.1-4.5,0.7-4.5,2.1c0,1,0.6,1.7,1.8,1.7
		c1.2,0,2.7-0.7,2.7-2.1V65.7z"/>
	<path class="st0" d="M129.2,60.9c0.7-1.9,2.2-2.8,4.1-2.8c2.1,0,3.9,1.2,3.9,4v9.2h-2.9v-8.2c0-1.5-0.6-2.5-2.1-2.5
		c-1.4,0-2.8,0.8-2.8,3.4v7.3h-2.9V58.4h2.4L129.2,60.9z"/>
	<path class="st0" d="M151.2,68c-0.4,2.6-2.6,3.7-5.2,3.7c-3.5,0-5.9-2.4-5.9-6.7c0-4.3,2.4-6.9,6-6.9c2.9,0,4.7,1.5,4.9,4.1
		l-2.6,0.6c-0.2-1.5-1-2.4-2.4-2.4c-2,0-3.1,1.8-3.1,4.5s1.2,4.5,3.2,4.5c1.2,0,2.1-0.6,2.5-2.1L151.2,68z"/>
	<path class="st0" d="M161.8,67.4l2.5,0.8c-0.6,2.6-2.8,3.5-5.3,3.5c-3.5,0-5.9-2.4-5.9-6.7c0-4.4,2.3-6.9,6-6.9
		c3.4,0,5.2,2.3,5.2,5.6c0,0.7-0.1,1.3-0.2,1.7h-8.2c0.1,2.4,1.2,3.9,3.2,3.9C160.4,69.4,161.3,68.9,161.8,67.4z M161.5,63.5
		c0-0.2,0-0.3,0-0.5c0-1.5-1-2.7-2.5-2.7c-1.7,0-2.8,1.2-3,3.2H161.5z"/>
	<path class="st0" d="M168.6,67.5c0.2,1.5,1.3,2.1,2.7,2.1c1.3,0,2.3-0.5,2.3-1.5c0-1-0.5-1.5-1.9-1.8l-1.9-0.4
		c-2.3-0.6-3.2-1.8-3.2-3.7c0-3.1,2.5-4,5-4c2.9,0,4.6,1,4.8,3.6l-2.8,0.3c-0.1-1.2-0.8-1.7-2.2-1.7c-1.2,0-2,0.6-2,1.5
		c0,0.8,0.4,1.3,1.6,1.6l1.8,0.4c2.4,0.6,3.7,1.7,3.7,4c0,2.8-2.3,3.9-5.2,3.9c-3,0-4.8-0.9-5.2-3.3L168.6,67.5z"/>
	<path class="st0" d="M184.7,64.8c0-4.4,2.4-6.7,6-6.7c3.6,0,6,2.3,6,6.7c0,4.4-2.4,6.9-6,6.9C187.1,71.7,184.7,69.2,184.7,64.8z
		 M187.6,64.8c0,3.1,1,4.6,3.1,4.6c2.1,0,3.1-1.5,3.1-4.6c0-2.9-1.1-4.4-3.1-4.4C188.7,60.4,187.6,61.9,187.6,64.8z"/>
	<path class="st0" d="M202.5,60.9c0.7-1.9,2.2-2.8,4.1-2.8c2.1,0,3.9,1.2,3.9,4v9.2h-2.9v-8.2c0-1.5-0.6-2.5-2.1-2.5
		c-1.4,0-2.8,0.8-2.8,3.4v7.3h-2.9V58.4h2.4L202.5,60.9z"/>
	<path class="st0" d="M219,71.3c-0.7,0.2-1.2,0.3-1.8,0.3c-1.7,0-3.2-0.9-3.2-3v-16h2.9v15.3c0,0.8,0.5,1.1,1.1,1.1
		c0.4,0,0.6-0.1,0.9-0.1L219,71.3z"/>
	<path class="st0" d="M223.3,52.5c1.1,0,1.9,0.7,1.9,1.8c0,1.1-0.8,1.8-1.9,1.8c-1,0-1.9-0.8-1.9-1.8
		C221.4,53.2,222.3,52.5,223.3,52.5z M224.8,58.4v12.9h-2.9V58.4H224.8z"/>
	<path class="st0" d="M231.4,60.9c0.7-1.9,2.2-2.8,4.1-2.8c2.1,0,3.9,1.2,3.9,4v9.2h-2.9v-8.2c0-1.5-0.6-2.5-2.1-2.5
		c-1.4,0-2.8,0.8-2.8,3.4v7.3h-2.9V58.4h2.4L231.4,60.9z"/>
	<path class="st0" d="M251,67.4l2.5,0.8c-0.6,2.6-2.8,3.5-5.3,3.5c-3.5,0-5.9-2.4-5.9-6.7c0-4.4,2.3-6.9,6-6.9
		c3.4,0,5.2,2.3,5.2,5.6c0,0.7-0.1,1.3-0.2,1.7h-8.2c0.1,2.4,1.2,3.9,3.2,3.9C249.6,69.4,250.6,68.9,251,67.4z M250.7,63.5
		c0-0.2,0-0.3,0-0.5c0-1.5-1-2.7-2.5-2.7c-1.7,0-2.8,1.2-3,3.2H250.7z"/>
	<path class="st0" d="M273.7,64.6c0.7,2.6,0.9,4.6,0.9,4.6h0.1c0,0,0.1-2,0.7-4.6l1.5-6.2h2.9l-3.5,12.9h-3.5l-1.5-5.6
		c-0.6-2.3-0.8-4.1-0.8-4.1h-0.1c0,0-0.1,1.8-0.8,4.1l-1.5,5.6h-3.5l-3.6-12.9h3l1.6,6.2c0.7,2.6,0.9,4.6,0.9,4.6h0.1
		c0,0,0.1-2,0.8-4.6l1.7-6.2h2.8L273.7,64.6z"/>
	<path class="st0" d="M283.5,52.5c1.1,0,1.9,0.7,1.9,1.8c0,1.1-0.8,1.8-1.9,1.8c-1,0-1.9-0.8-1.9-1.8
		C281.6,53.2,282.5,52.5,283.5,52.5z M285,58.4v12.9h-2.9V58.4H285z"/>
	<path class="st0" d="M296.4,70.9c-0.9,0.5-2.1,0.8-3.4,0.8c-2.4,0-3.9-1.2-3.9-3.8v-7.2h-1.9v-2.3h1.9v-2.7l3-0.4v3.1h3.8v2.3H292
		v6.6c0,1.4,0.6,1.9,1.7,1.9c0.8,0,1.5-0.3,2.2-0.8L296.4,70.9z"/>
	<path class="st0" d="M301.7,60.9c0.6-1.9,2-2.8,3.9-2.8c2.1,0,3.9,1.2,3.9,4v9.2h-2.9v-8.3c0-1.5-0.6-2.5-2.1-2.5
		c-1.4,0-2.8,0.8-2.8,3.4v7.3h-2.9V52.6h2.9V60.9z"/>
	<path class="st0" d="M326.4,67c-1.1-1.6-1.2-2.2-1.2-2.2h-0.1c0,0-0.1,0.5-1.2,2.2l-2.7,4.3h-3.4l5.7-8.3l-5.4-8.2h3.5l2.4,3.8
		c1.2,1.9,1.3,2.4,1.3,2.4h0.1c0,0,0.1-0.4,1.2-2.3l2.3-3.8h3.3l-5.2,8l5.7,8.5h-3.4L326.4,67z"/>
	<path class="st0" d="M342.2,67.4l2.5,0.8c-0.6,2.6-2.8,3.5-5.3,3.5c-3.5,0-5.9-2.4-5.9-6.7c0-4.4,2.3-6.9,6-6.9
		c3.4,0,5.2,2.3,5.2,5.6c0,0.7-0.1,1.3-0.2,1.7h-8.2c0.1,2.4,1.2,3.9,3.2,3.9C340.9,69.4,341.8,68.9,342.2,67.4z M342,63.5
		c0-0.2,0-0.3,0-0.5c0-1.5-1-2.7-2.5-2.7c-1.7,0-2.8,1.2-3,3.2H342z"/>
	<path class="st0" d="M355.5,61.4c-0.4-0.1-0.8-0.2-1.3-0.2c-1.7,0-3.5,1.2-3.5,3.8v6.3h-2.9V58.4h2.5l0.4,3.5c0.5-2.3,2-4,5.1-3.8
		L355.5,61.4z"/>
	<path class="st0" d="M356.8,64.8c0-4.4,2.4-6.7,6-6.7c3.6,0,6,2.3,6,6.7c0,4.4-2.4,6.9-6,6.9C359.2,71.7,356.8,69.2,356.8,64.8z
		 M359.7,64.8c0,3.1,1,4.6,3.1,4.6c2.1,0,3.1-1.5,3.1-4.6c0-2.9-1.1-4.4-3.1-4.4C360.8,60.4,359.7,61.9,359.7,64.8z"/>
</g>
</svg>
