<?xml version="1.0" encoding="utf-8"?>
<!-- Generator: Adobe Illustrator 21.0.0, SVG Export Plug-In . SVG Version: 6.00 Build 0)  -->
<svg version="1.1" id="Layer_1" xmlns="http://www.w3.org/2000/svg" xmlns:xlink="http://www.w3.org/1999/xlink" x="0px" y="0px"
	 viewBox="0 0 80 16" style="enable-background:new 0 0 80 16;" xml:space="preserve">
<style type="text/css">
	.st0{fill:#FFFFFF;}
</style>
<g>
	<path class="st0" d="M2.5,11.3c0.2,1.5,1.2,2.1,2.5,2.1c1.3,0,2.2-0.6,2.2-1.7c0-1.1-0.5-1.6-2.5-2.3C2.8,8.7,1.1,8,1.1,5.7
		c0-2.5,2-3.4,3.8-3.4c2.2,0,3.9,0.9,4.1,3.2L7.2,5.8c-0.1-1.3-1-2-2.2-2c-1.1,0-1.9,0.6-1.9,1.7c0,1.2,1,1.6,2.6,2.2
		c1.8,0.7,3.4,1.4,3.4,3.7c0,2.4-1.9,3.4-4.2,3.4c-2.4,0-3.8-0.9-4.2-3.1L2.5,11.3z"/>
	<path class="st0" d="M16.5,14.3c-0.6,0.4-1.4,0.6-2.3,0.6c-1.7,0-2.7-0.9-2.7-2.7V6.6h-1.4V5.2h1.4v-2l1.9-0.2v2.2h2.8v1.5h-2.8
		v5.2c0,1,0.5,1.5,1.2,1.5c0.6,0,1-0.2,1.6-0.5L16.5,14.3z"/>
	<path class="st0" d="M24.9,12.4c0,0.7,0.3,0.9,0.7,0.9c0.2,0,0.4,0,0.5-0.1v1.4c-0.3,0.1-0.6,0.2-1,0.2c-1.1,0-1.8-0.5-1.9-1.5
		c-0.5,1.2-1.6,1.6-2.8,1.6c-1.7,0-2.8-0.9-2.8-2.6c0-2.1,1.6-3.3,5.5-3.1V8c0-1.2-0.7-1.6-1.7-1.6c-1,0-1.6,0.5-1.7,1.5l-1.8-0.3
		c0.1-2,1.9-2.7,3.6-2.7c1.8,0,3.4,0.7,3.4,2.9V12.4z M23,10.4c-2.5-0.1-3.6,0.5-3.6,1.7c0,0.8,0.5,1.4,1.5,1.4c1,0,2.1-0.6,2.1-1.7
		V10.4z"/>
	<path class="st0" d="M33.4,7C33.1,7,32.8,7,32.5,7c-1.3,0-2.6,1-2.6,2.9v4.8h-1.8V5.2h1.6l0.2,2.6C30.2,6,31.4,4.9,33.5,5L33.4,7z"
		/>
	<path class="st0" d="M40.5,14.3c-0.6,0.4-1.4,0.6-2.3,0.6c-1.7,0-2.7-0.9-2.7-2.7V6.6h-1.4V5.2h1.4v-2l1.9-0.2v2.2h2.8v1.5h-2.8
		v5.2c0,1,0.5,1.5,1.2,1.5c0.6,0,1-0.2,1.6-0.5L40.5,14.3z"/>
	<path class="st0" d="M51.9,14.3c-0.6,0.4-1.4,0.6-2.3,0.6c-1.7,0-2.7-0.9-2.7-2.7V6.6h-1.4V5.2h1.4v-2l1.9-0.2v2.2h2.8v1.5h-2.8
		v5.2c0,1,0.5,1.5,1.2,1.5c0.6,0,1-0.2,1.6-0.5L51.9,14.3z"/>
	<path class="st0" d="M59,7C58.7,7,58.4,7,58.1,7c-1.3,0-2.6,1-2.6,2.9v4.8h-1.8V5.2h1.6l0.2,2.6C55.8,6,57,4.9,59.1,5L59,7z"/>
	<path class="st0" d="M61.9,0.9c0.7,0,1.3,0.5,1.3,1.2c0,0.7-0.6,1.2-1.3,1.2c-0.7,0-1.2-0.5-1.2-1.2C60.6,1.4,61.2,0.9,61.9,0.9z
		 M62.8,5.2v9.5H61V5.2H62.8z"/>
	<path class="st0" d="M72.4,12.4c0,0.7,0.3,0.9,0.7,0.9c0.2,0,0.4,0,0.5-0.1v1.4c-0.3,0.1-0.6,0.2-1,0.2c-1.1,0-1.8-0.5-1.9-1.5
		c-0.5,1.2-1.6,1.6-2.8,1.6c-1.7,0-2.8-0.9-2.8-2.6c0-2.1,1.6-3.3,5.5-3.1V8c0-1.2-0.7-1.6-1.7-1.6c-1,0-1.6,0.5-1.7,1.5l-1.8-0.3
		c0.1-2,1.9-2.7,3.6-2.7c1.8,0,3.4,0.7,3.4,2.9V12.4z M70.5,10.4c-2.5-0.1-3.6,0.5-3.6,1.7c0,0.8,0.5,1.4,1.5,1.4
		c1,0,2.1-0.6,2.1-1.7V10.4z"/>
	<path class="st0" d="M78.7,14.6c-0.5,0.1-0.8,0.2-1.1,0.2c-1.2,0-2.2-0.6-2.2-2V1h1.8v11.4c0,0.6,0.3,0.8,0.8,0.8
		c0.3,0,0.5,0,0.7-0.1L78.7,14.6z"/>
</g>
</svg>
