<svg xmlns="http://www.w3.org/2000/svg" width="58" height="33.1"><path d="M4.5 5.8c.9.1 1.5.7 1.5 1.6 0 1.1-.8 1.9-2.4 1.9H.9V2.4h2.6c1.4 0 2.1.6 2.1 1.7.1.9-.4 1.4-1.1 1.7zm-1.2-.5c.6 0 1-.2 1-.9 0-.6-.4-.9-1-.9h-1v1.7h1zm-1 2.8h1.2c.7 0 1-.2 1-.9 0-.5-.3-.8-1-.8H2.3v1.7zm8-.6l1.2.4c-.2 1.1-1.2 1.5-2.2 1.5-1.5 0-2.5-1-2.5-2.8 0-1.8 1-2.9 2.6-2.9 1.5 0 2.2 1 2.2 2.4 0 .3 0 .5-.1.7H8.1c0 .9.5 1.5 1.2 1.5.5 0 .9-.2 1-.8zM10.2 6v-.2c0-.6-.3-1-1-1-.6 0-1 .5-1.1 1.2h2.1zm6.5 1.7c0 .4.2.5.4.5.1 0 .2 0 .3-.1v1c-.2.1-.5.2-.8.2-.7 0-1.1-.3-1.2-.9-.3.7-.9.9-1.6.9-1 0-1.6-.5-1.6-1.5 0-1.2 1-1.9 3.1-1.7v-.5c0-.5-.3-.8-.7-.8-.5 0-.7.3-.8.8l-1.4-.2c.1-1.1 1.1-1.6 2.2-1.6 1.2 0 2.1.5 2.1 1.7v2.2zM15.3 7c-1.2 0-1.7.3-1.7.8 0 .4.2.6.7.6.5 0 1-.2 1-.8V7zm6.1 1.3c-.2.7-.7 1.1-1.7 1.1s-1.6-.5-1.6-1.7V3.9h1.4v3.4c0 .7.2 1 .8 1 .5 0 1.1-.5 1.1-1.5v-3h1.4v5.4h-1.2l-.2-.9zm6.1.8c-.4.2-.9.3-1.5.3-1 0-1.7-.5-1.7-1.7V5h-.8V3.9h.8V2.7l1.4-.2v1.3h1.6V5h-1.6v2.5c0 .6.2.8.7.8.3 0 .6-.1.9-.3l.2 1.1zm1.4-7.7c.5 0 .9.3.9.8s-.4.8-.9.8-.9-.3-.9-.8c.1-.5.5-.8.9-.8zm.7 2.5v5.4h-1.4V3.9h1.4zm.8 1.1V3.9h.8v-.5c0-1.5.9-2 2.1-2 .5 0 .9.1 1.2.2l-.2 1.2c-.3-.2-.5-.2-.9-.2-.5 0-.8.2-.8.9v.4H34V5h-1.4v4.3h-1.4V5h-.8zm7.4 3.3c-.3.7-.8 1.1-1.7 1.1-1 0-1.6-.5-1.6-1.7V3.9h1.4v3.4c0 .7.2 1 .8 1 .5 0 1.1-.5 1.1-1.5v-3h1.4v5.4H38l-.2-.9zm4.8.9c-.3.1-.6.1-.8.1-.7 0-1.4-.4-1.4-1.3V1.5h1.4v6.2c0 .3.2.5.5.5.1 0 .3 0 .4-.1l-.1 1.1zm-37.8 9c0 .4.2.5.4.5.1 0 .2 0 .3-.1v1c-.2.1-.5.2-.8.2-.7 0-1.1-.3-1.2-.9-.3.7-.9.9-1.6.9-1 0-1.6-.5-1.6-1.5 0-1.2 1-1.9 3.1-1.7V16c0-.5-.3-.8-.7-.8-.5 0-.7.3-.8.8l-1.4-.2c.1-1.1 1.1-1.6 2.2-1.6 1.2 0 2.1.5 2.1 1.7v2.3zm-1.4-.8c-1.2 0-1.7.3-1.7.8 0 .4.2.6.7.6.5 0 1-.2 1-.8v-.6zm7.4.9c-.2 1.1-1.1 1.6-2.2 1.6C7 19.8 6 18.8 6 17c0-1.8 1-2.8 2.6-2.8 1.2 0 2 .7 2.1 1.7l-1.2.3c-.1-.6-.4-.9-.9-.9-.8 0-1.2.7-1.2 1.7 0 1.1.5 1.7 1.2 1.7.5 0 .8-.2 1-.8l1.2.4zm5.2 0c-.2 1.1-1.1 1.6-2.2 1.6-1.5 0-2.5-1-2.5-2.8 0-1.8 1-2.8 2.6-2.8 1.2 0 2 .7 2.1 1.7l-1.2.3c-.1-.6-.4-.9-.9-.9-.8 0-1.2.7-1.2 1.7 0 1.1.5 1.7 1.2 1.7.5 0 .8-.2 1-.8l1.1.3zm.6-1.3c0-1.8 1-2.8 2.6-2.8s2.6 1 2.6 2.8c0 1.8-1 2.9-2.6 2.9s-2.6-1.1-2.6-2.9zm1.4 0c0 1.2.4 1.8 1.2 1.8.8 0 1.2-.6 1.2-1.8 0-1.2-.4-1.7-1.2-1.7-.8 0-1.2.5-1.2 1.7zm7.9 1.7c-.2.7-.7 1.1-1.7 1.1s-1.6-.5-1.6-1.7v-3.8H24v3.4c0 .7.2 1 .8 1 .5 0 1.1-.5 1.1-1.5v-3h1.4v5.4h-1.2l-.2-.9zm4-3.4c.3-.8.9-1.2 1.7-1.2.9 0 1.6.5 1.6 1.7v3.8h-1.4v-3.3c0-.6-.2-1-.8-1-.6 0-1.1.3-1.1 1.3v3h-1.4v-5.4h1.2l.2 1.1zm8 4.2c-.4.2-.9.3-1.5.3-1 0-1.7-.5-1.7-1.7v-2.8h-.8v-1.1h.8v-1.1l1.4-.2v1.3h1.6v1.1h-1.6v2.5c0 .6.2.8.7.8.3 0 .6-.1.9-.3l.2 1.2zm1.5-7.7c.5 0 .9.3.9.8s-.4.8-.9.8-.9-.3-.9-.8.4-.8.9-.8zm.7 2.5v5.4h-1.4v-5.4h1.4zm2.6 1c.3-.8.9-1.2 1.7-1.2.9 0 1.6.5 1.6 1.7v3.8h-1.4v-3.3c0-.6-.2-1-.8-1-.6 0-1.1.3-1.1 1.3v3h-1.4v-5.4h1.2l.2 1.1zm8.1-.8c.2-.2.3-.4.4-.8l1.1.4c-.1.5-.5.9-.9 1 .2.3.2.6.2 1 0 1.2-1.1 1.9-2.4 1.9-.3 0-.5 0-.7-.1-.2.1-.3.3-.3.5s.2.4.5.4h1.5c1.2 0 1.9.6 1.9 1.6 0 1.5-1.6 1.9-3.1 1.9-1.3 0-2.5-.3-2.5-1.4 0-.7.5-1.1 1.4-1.1-.5 0-.8-.5-.8-.9s.3-.9.9-1c-.7-.3-1.1-.8-1.1-1.6 0-1.2.9-1.9 2.3-1.9.6-.2 1.2-.1 1.6.1zm-1.6 6.7c1.1 0 1.6-.2 1.6-.7 0-.3-.2-.5-.7-.5h-1.3c-.5 0-.9.2-.9.6-.1.4.4.6 1.3.6zm0-4.2c.6 0 .9-.3.9-.9 0-.6-.3-.9-.9-.9-.6 0-.9.3-.9.9 0 .5.3.9.9.9zM1.4 28.4c.1.6.5.8 1.1.8.5 0 .9-.2.9-.5s-.2-.5-.7-.7l-.8-.2c-1-.2-1.4-.8-1.4-1.6 0-1.3 1.1-1.7 2.1-1.7 1.2 0 2 .4 2.1 1.5l-1.3.2c0-.5-.3-.6-.8-.6-.4 0-.7.2-.7.5s.2.5.6.6l.8.2c1 .2 1.6.8 1.6 1.7 0 1.2-1 1.6-2.2 1.6-1.3 0-2.1-.4-2.2-1.4l.9-.4zm3.9-1c0-1.8 1-2.8 2.6-2.8s2.6 1 2.6 2.8-1 2.9-2.6 2.9-2.6-1.1-2.6-2.9zm1.4 0c0 1.2.4 1.8 1.2 1.8.8 0 1.2-.6 1.2-1.8 0-1.2-.4-1.7-1.2-1.7-.8 0-1.2.5-1.2 1.7zm4.2-1.6v-1.1h.8v-.5c0-1.5.9-2 2.1-2 .5 0 .9.1 1.2.2l-.2 1.2c-.3-.2-.5-.2-.9-.2-.5 0-.8.2-.8.9v.4h1.4v1.1h-1.4v4.3h-1.4v-4.3h-.8zm7.8 4.1c-.4.2-.9.3-1.5.3-1 0-1.7-.5-1.7-1.7v-2.8h-.8v-1.1h.8v-1.1l1.4-.2v1.3h1.6v1.1h-1.6v2.5c0 .6.2.8.7.8.3 0 .6-.1.9-.3l.2 1.2zm5.6-2.8c.3 1.1.4 2 .4 2s0-.9.3-2l.6-2.4H27l-1.4 5.4h-1.7l-.6-2.1c-.2-.9-.3-1.7-.3-1.7s-.1.8-.3 1.7l-.5 2.1h-1.6L19 24.7h1.4l.6 2.4c.3 1.1.3 2 .3 2s.1-.9.3-2l.6-2.4h1.3l.8 2.4zm7.4 1.5c0 .4.2.5.4.5.1 0 .2 0 .3-.1v1c-.2.1-.5.2-.8.2-.7 0-1.1-.3-1.2-.9-.3.7-.9.9-1.6.9-1 0-1.6-.5-1.6-1.5 0-1.2 1-1.9 3.1-1.7v-.6c0-.5-.3-.8-.7-.8-.5 0-.7.3-.8.8l-1.4-.2c.1-1.1 1.1-1.6 2.2-1.6 1.2 0 2.1.5 2.1 1.7v2.3zm-1.4-.8c-1.2 0-1.7.3-1.7.8 0 .4.2.6.7.6.5 0 1-.2 1-.8v-.6zm6.3-1.7c-.2 0-.3-.1-.6-.1-.7 0-1.4.4-1.4 1.5v2.6h-1.4v-5.4h1.2l.2 1.5c.2-.9.8-1.7 2.1-1.6l-.1 1.5zm4.2 2.3l1.2.4c-.3 1.1-1.2 1.5-2.3 1.5-1.5 0-2.5-1-2.5-2.8 0-1.8 1-2.9 2.6-2.9 1.5 0 2.2 1 2.2 2.4 0 .3 0 .5-.1.7h-3.4c0 .9.5 1.5 1.2 1.5.5 0 .9-.2 1.1-.8zm-.2-1.6v-.2c0-.6-.3-1-1-1-.6 0-1 .5-1.1 1.2h2.1z" fill="#FFF"/></svg>